<?xml version="1.0" encoding="UTF-8"?>
<svg id="Layer_1" xmlns="http://www.w3.org/2000/svg" version="1.1" viewBox="0 0 552 511">
  <!-- Generator: Adobe Illustrator 29.5.1, SVG Export Plug-In . SVG Version: 2.1.0 Build 141)  -->
  <defs>
    <style>
      .st0 {
        fill: none;
        stroke: #000;
      }
    </style>
  </defs>
  <path class="st0" d="M207.1,10.2c7-9.6,17.9-11.3,27.6-8.3,9.6,3,18,10.7,20.4,20v.4c5.6,23.5,11.3,46.9,17.1,70.3l11.5,46.8c5.7,23.4,11.4,46.8,17,70.2.7,6.2,5,9.7,9.8,10.3,4.7.5,9.8-2,12-7.6h0c0,0,0-.1,0-.1l13.1-184.7c1.6-5.2,4.4-8.9,8-11.2,3.6-2.3,7.9-3.2,12.2-2.9,8.8.6,17.8,6,22,14.9,1.1,2.4,1.6,3.8,1.7,5.2,0,.7,0,1.4,0,2.2,0,.8,0,1.8,0,3h0c0,48.4-2.6,97-3.5,145.4h0s0,0,0,0c.5,5.8.1,11.9-.2,18-.4,6.1-.8,12.2-.3,18,.6,7.4,4.7,12.5,9.9,14.5,5.3,1.9,11.6.6,16.8-4.8h0s0-.1,0-.1c10.4-18.3,20.5-36.8,30.6-55.3,10.1-18.5,20.2-36.9,30.8-55.1,3.1-5.3,4.9-9.9,10.5-12.5h0c12.6-5.9,26.9,0,31.9,12.8,2,5.1,1.9,8.2.9,11.2-.5,1.5-1.2,2.9-2.1,4.6-.9,1.6-1.9,3.5-2.9,5.7-19.4,43.2-45.4,97.2-52.5,143.9-3.9,25.1-2.8,51.8-3.8,77.9-1,26.2-4.1,51.8-16.2,74.8-5.2,9.8-11.3,21-18.6,31.1-7.3,10.1-15.7,19.2-25.5,24.8-12.3,7.1-29.2,10.9-46.7,13.1-17.4,2.1-35.3,2.6-49.5,2.9-27.6.6-52-.3-79.2-4.7-26.4-4.2-52.4-10.3-78.3-16.7-25.9-6.4-51.7-13.1-77.9-18.4-4.8-1-11.2-1.6-17.8-2.4-6.6-.8-13.5-1.9-19.5-3.9-6-1.9-10.9-4.7-13.7-8.9-2.8-4.2-3.4-9.8-.7-17.6,3.3-9.4,11-16.8,20.2-21.7,9.3-5,20.1-7.5,29.5-7.1h0c8.3.3,17.7,1.6,27.5,3.1,9.8,1.5,20.1,3.2,30.4,4.4,20.1,2.3,40.1,2.5,55.6-5.6l.7-.4c12.1-6.5,18.1-15.3,20.8-25.4,2.6-9.5,2.3-20.3,1.7-31.5v-2.3c-2.1-35.2-9.2-62.3-27.5-92.4-13.5-22.2-27.8-44-42.1-65.8-14.3-21.8-28.6-43.5-42.2-65.7-7.4-16.8-2.2-30.2,7.5-35.8,9.7-5.6,24.2-3.6,35.5,10.9h0c.3.4.6,1,1,1.6.3.6.7,1.2,1.1,1.8,32.2,42.4,62.7,86,94.6,128.7h0s0,0,0,0c5,5.3,12.4,8.2,18.3,7.3,3-.4,5.7-1.8,7.5-4.3,1.8-2.5,2.8-6.1,2.4-10.8h0s0,0,0,0l-1.2-5.8c-12.6-59.7-26.7-119.1-38.8-179-2.3-11.5-5.6-20.5,2.1-31.1Z"/>
</svg>